# Blender v3.1.2 OBJ File: ''
# www.blender.org
mtllib fighter.mtl
o 立方体
v -1.000000 0.236217 1.000000
v -1.000000 1.000000 1.000000
v -1.000000 -0.455823 -1.000000
v -6.857373 1.000000 -1.000000
v 1.000000 0.236217 1.000000
v 1.000000 1.000000 1.000000
v 1.000000 -0.455823 -1.000000
v 6.857373 1.000000 -1.000000
v 0.663215 3.549591 -1.000000
v -1.464786 0.599437 -2.040275
v -2.595645 -1.000000 -5.700085
v 2.595645 -1.000000 -5.700085
v 1.464786 0.599437 -2.040275
v 0.000000 -1.000000 -1.000000
v 0.000000 0.856194 -1.000000
v 0.000000 -0.421971 1.000000
v 0.000000 1.000000 1.000000
v 0.000000 -1.000000 -4.339034
v 0.000000 0.401615 -2.718283
v -0.484420 0.236217 5.262765
v -0.560485 1.000000 5.262765
v 0.560485 1.000000 5.262765
v 0.484420 0.236217 5.262765
v 0.000000 0.132507 5.262765
v 0.000000 1.000000 5.262765
v -0.031822 0.759906 7.569100
v -0.079288 1.000000 7.569100
v 0.079288 1.000000 7.569100
v 0.031822 0.759906 7.569100
v 0.000000 0.684428 7.569100
v 0.000000 1.000000 7.569100
v 0.629927 0.236217 3.131382
v 0.000000 -0.134939 3.131382
v -0.629927 0.236217 3.131382
v -0.797838 1.000000 3.131382
v 0.000000 1.000000 3.131382
v 0.797838 1.000000 3.131382
vt 0.783008 0.354398
vt 0.704926 0.279598
vt 0.771547 0.353304
vt 0.264889 0.306031
vt 0.350057 0.298955
vt 0.319307 0.369072
vt 0.774473 0.219563
vt 0.852555 0.294363
vt 0.841094 0.293269
vt 0.860683 0.400249
vt 0.909339 0.492814
vt 0.844348 0.419689
vt 0.796445 0.322345
vt 0.731534 0.248801
vt 0.167534 0.265436
vt 0.203241 0.234613
vt 0.374908 0.433485
vt 0.509114 0.401584
vt 0.212604 0.792733
vt 0.157079 0.745635
vt 0.212604 0.561592
vt 0.106302 0.561592
vt 0.050777 0.608690
vt 0.000000 0.592552
vt 0.637645 0.127400
vt 0.689634 0.000000
vt 0.245450 0.389252
vt 0.323749 0.561592
vt 0.238948 0.203791
vt 0.509114 0.093938
vt 0.943029 0.463732
vt 0.924628 0.478125
vt 0.019402 0.516661
vt 0.073193 0.083956
vt 0.000000 0.004888
vt 0.002831 0.002444
vt 0.005662 0.000000
vt 0.093206 0.066680
vt 0.138217 0.159285
vt 0.053180 0.101232
vt 0.212604 0.663596
vt 0.249344 0.763710
vt 0.213157 0.764069
vt 0.166706 0.134694
vt 0.249344 0.772906
vt 0.286085 0.672792
vt 0.286085 0.773891
vt 0.289825 0.576478
vt 0.288324 0.565152
vt 0.289825 0.561592
vt 0.291326 0.565152
vt 0.236475 0.874910
vt 0.997761 0.562768
vt 0.997787 0.563832
vt 0.273216 0.561592
vt 0.284733 0.561865
vt 0.250144 0.874910
vt 0.285873 0.874751
vt 0.213403 0.561592
vt 0.249344 0.662611
vt 0.109729 0.183876
vt 0.888157 0.381871
vt 0.523088 0.457506
vt 1.000000 0.045822
vt 0.106302 0.761773
vt 0.106302 0.792733
vt 0.509114 0.155830
vt 0.249898 0.672432
vt 0.286085 0.576478
vt 0.293565 0.576478
vt 0.247992 0.874636
vt 1.000000 0.561922
vt 0.249132 0.561751
vn -1.0000 0.0000 0.0000
vn -0.0122 0.9667 -0.2557
vn 1.0000 0.0000 0.0000
vn -0.5073 -0.8611 0.0346
vn 0.4633 -0.8514 0.2461
vn 0.0000 0.9974 -0.0717
vn -0.2356 0.8617 -0.4494
vn -0.9400 -0.0892 0.3294
vn 0.1814 -0.7297 -0.6592
vn -0.4780 -0.8784 0.0000
vn 0.0729 -0.9876 0.1391
vn 0.2356 0.8617 -0.4494
vn -0.0209 0.9979 -0.0613
vn -0.5282 -0.8025 0.2777
vn 0.2078 -0.9706 0.1218
vn 0.0202 0.9637 -0.2663
vn 0.0000 1.0000 0.0000
vn 0.9928 -0.0989 0.0678
vn -0.9710 -0.2135 0.1081
vn 0.0000 0.0000 1.0000
vn 0.9723 -0.0968 0.2128
vn -0.8898 -0.3752 0.2598
vn 0.2038 -0.9521 0.2278
vn -0.9611 -0.1900 0.2005
vn -0.9955 0.0000 0.0944
vn 0.9629 -0.2117 0.1672
vn 0.5043 -0.8558 0.1153
vn -0.5473 -0.8315 0.0950
vn -0.1970 -0.7926 0.5770
vn -0.0202 0.9637 -0.2663
vn 0.1970 -0.7926 0.5770
vn -0.2078 -0.9706 0.1218
vn 0.5282 -0.8025 0.2777
vn 0.0209 0.9979 -0.0613
vn 0.1967 0.7416 -0.6413
vn -0.1814 -0.7297 -0.6592
vn 0.9400 -0.0892 0.3294
vn -0.0729 -0.9876 0.1391
vn 0.4780 -0.8784 0.0000
vn -0.1967 0.7416 -0.6413
vn -0.4633 -0.8514 0.2461
vn 0.5073 -0.8611 0.0346
vn 0.0122 0.9667 -0.2557
vn 0.9710 -0.2135 0.1081
vn -0.9928 -0.0989 0.0678
vn 0.9611 -0.1900 0.2005
vn -0.2038 -0.9521 0.2278
vn 0.8898 -0.3752 0.2598
vn -0.9723 -0.0968 0.2128
vn -0.9629 -0.2117 0.1672
vn 0.9955 0.0000 0.0944
vn 0.5473 -0.8315 0.0950
vn -0.5043 -0.8558 0.1153
usemtl マテリアル
s off
f 2/1/1 3/2/1 1/3/1
f 15/4/2 13/5/2 19/6/2
f 7/7/3 6/8/3 5/9/3
f 33/10/4 20/11/4 34/12/4
f 7/7/5 16/13/5 14/14/5
f 15/4/6 2/15/6 17/16/6
f 18/17/7 13/5/7 12/18/7
f 3/19/8 10/20/8 11/21/8
f 7/22/9 13/23/9 8/24/9
f 3/2/10 18/25/10 14/14/10
f 7/7/11 18/25/11 12/26/11
f 10/27/12 18/17/12 11/28/12
f 15/4/13 6/29/13 8/30/13
f 3/2/14 16/13/14 1/3/14
f 33/10/15 23/31/15 24/32/15
f 15/4/16 10/27/16 4/33/16
f 25/34/17 27/35/17 31/36/17
f 25/34/17 28/37/17 22/38/17
f 36/39/17 21/40/17 25/34/17
f 32/41/18 22/42/18 23/43/18
f 36/39/17 22/38/17 37/44/17
f 34/45/19 21/46/19 35/47/19
f 31/48/20 26/49/20 30/50/20
f 29/51/20 31/48/20 30/50/20
f 22/42/21 29/52/21 23/43/21
f 20/11/22 30/53/22 26/54/22
f 23/31/23 30/53/23 24/32/23
f 21/46/24 26/55/24 27/56/24
f 1/57/25 35/47/25 2/58/25
f 17/16/17 37/44/17 6/29/17
f 5/59/26 37/60/26 32/41/26
f 17/16/17 35/61/17 36/39/17
f 16/13/27 32/62/27 33/10/27
f 16/13/28 34/12/28 1/3/28
f 2/1/29 4/63/29 3/2/29
f 15/4/30 8/30/30 13/5/30
f 7/7/31 8/64/31 6/8/31
f 33/10/32 24/32/32 20/11/32
f 7/7/33 5/9/33 16/13/33
f 15/4/34 4/33/34 2/15/34
f 18/17/35 19/6/35 13/5/35
f 3/19/36 4/65/36 10/20/36
f 7/22/37 12/66/37 13/23/37
f 3/2/38 11/67/38 18/25/38
f 7/7/39 14/14/39 18/25/39
f 10/27/40 19/6/40 18/17/40
f 15/4/6 17/16/6 6/29/6
f 3/2/41 14/14/41 16/13/41
f 33/10/42 32/62/42 23/31/42
f 15/4/43 19/6/43 10/27/43
f 25/34/17 21/40/17 27/35/17
f 25/34/17 31/36/17 28/37/17
f 36/39/17 35/61/17 21/40/17
f 32/41/44 37/60/44 22/42/44
f 36/39/17 25/34/17 22/38/17
f 34/45/45 20/68/45 21/46/45
f 31/48/20 27/69/20 26/49/20
f 29/51/20 28/70/20 31/48/20
f 22/42/46 28/71/46 29/52/46
f 20/11/47 24/32/47 30/53/47
f 23/31/48 29/72/48 30/53/48
f 21/46/49 20/68/49 26/55/49
f 1/57/50 34/45/50 35/47/50
f 17/16/17 36/39/17 37/44/17
f 5/59/51 6/73/51 37/60/51
f 17/16/17 2/15/17 35/61/17
f 16/13/52 5/9/52 32/62/52
f 16/13/53 33/10/53 34/12/53
