# Blender v3.1.2 OBJ File: 'bullet4.blend'
# www.blender.org
mtllib bullet.mtl
o 立方体.002
v -0.016631 0.245354 1.704204
v -0.016631 0.415252 1.704204
v -0.016631 0.245354 1.494980
v -0.016631 0.415252 1.494980
v -0.001433 0.245354 1.704204
v -0.001433 0.415252 1.704204
v -0.001433 0.245354 1.494980
v -0.001433 0.415252 1.494980
v -0.016631 0.245354 1.249188
v -0.001433 0.245354 1.249188
v 0.000000 0.256517 -0.256517
v 0.000000 0.256517 1.703572
v 0.050044 0.251589 -0.256517
v 0.050044 0.251589 1.703572
v 0.098165 0.236991 -0.256517
v 0.098165 0.236991 1.703572
v 0.142513 0.213286 -0.256517
v 0.142513 0.213286 1.703572
v 0.181385 0.181385 -0.256517
v 0.181385 0.181385 1.703572
v 0.213286 0.142513 -0.256517
v 0.213286 0.142513 1.703572
v 0.236991 0.098165 -0.256517
v 0.236991 0.098165 1.703572
v 0.251588 0.050044 -0.256517
v 0.251588 0.050044 1.703572
v 0.256517 0.000000 -0.256517
v 0.256517 0.000000 1.703572
v 0.251588 -0.050044 -0.256517
v 0.251588 -0.050044 1.703572
v 0.236991 -0.098165 -0.256517
v 0.236991 -0.098165 1.703572
v 0.213286 -0.142513 -0.256517
v 0.213286 -0.142513 1.703572
v 0.181385 -0.181385 -0.256517
v 0.181385 -0.181385 1.703572
v 0.142513 -0.213286 -0.256517
v 0.142513 -0.213286 1.703572
v 0.098165 -0.236991 -0.256517
v 0.098165 -0.236991 1.703572
v 0.050044 -0.251588 -0.256517
v 0.050044 -0.251588 1.703572
v -0.000000 -0.256517 -0.256517
v -0.000000 -0.256517 1.703572
v -0.050044 -0.251588 -0.256517
v -0.050044 -0.251588 1.703572
v -0.098165 -0.236991 -0.256517
v -0.098165 -0.236991 1.703572
v -0.142513 -0.213286 -0.256517
v -0.142513 -0.213286 1.703572
v -0.181385 -0.181385 -0.256517
v -0.181385 -0.181385 1.703572
v -0.213286 -0.142513 -0.256517
v -0.213286 -0.142513 1.703572
v -0.236991 -0.098165 -0.256517
v -0.236991 -0.098165 1.703572
v -0.251588 -0.050044 -0.256517
v -0.251588 -0.050044 1.703572
v -0.256517 0.000000 -0.256517
v -0.256517 0.000000 1.703572
v -0.251588 0.050044 -0.256517
v -0.251588 0.050044 1.703572
v -0.236991 0.098165 -0.256517
v -0.236991 0.098165 1.703572
v -0.213286 0.142513 -0.256517
v -0.213286 0.142513 1.703572
v -0.181385 0.181385 -0.256517
v -0.181385 0.181385 1.703572
v -0.142513 0.213286 -0.256517
v -0.142513 0.213286 1.703572
v -0.098165 0.236991 -0.256517
v -0.098165 0.236991 1.703572
v -0.050044 0.251589 -0.256517
v -0.050044 0.251589 1.703572
v 0.000000 0.000000 -0.825913
v 0.013826 0.252209 0.032560
v 0.013826 0.412914 0.835165
v 0.013826 0.247853 0.835165
v -0.039435 0.252209 0.032560
v -0.039435 0.412914 0.835165
v -0.039435 0.247853 0.835165
v -0.024040 -0.259063 0.032561
v -0.024040 -0.419768 0.835165
v -0.024040 -0.254707 0.835165
v 0.029221 -0.259063 0.032561
v 0.029221 -0.419768 0.835165
v 0.029221 -0.254707 0.835165
v -0.242784 0.028550 1.704204
v -0.412677 0.027254 1.704204
v -0.242784 0.028550 1.494980
v -0.412677 0.027254 1.494980
v -0.242899 0.043746 1.704204
v -0.412793 0.042451 1.704204
v -0.242899 0.043746 1.494980
v -0.412793 0.042451 1.494980
v -0.242784 0.028550 1.249188
v -0.242899 0.043746 1.249188
v 0.001862 -0.244676 1.704204
v -0.002086 -0.414529 1.704204
v 0.001862 -0.244676 1.494980
v -0.002086 -0.414529 1.494980
v -0.013331 -0.244323 1.704204
v -0.017279 -0.414175 1.704204
v -0.013331 -0.244323 1.494980
v -0.017279 -0.414175 1.494980
v 0.001862 -0.244676 1.249188
v -0.013331 -0.244323 1.249188
v 0.250858 0.037244 1.704204
v 0.420751 0.035901 1.704204
v 0.250858 0.037244 1.494980
v 0.420751 0.035901 1.494980
v 0.250738 0.022048 1.704204
v 0.420631 0.020704 1.704204
v 0.250738 0.022048 1.494980
v 0.420631 0.020704 1.494980
v 0.250858 0.037244 1.249188
v 0.250738 0.022048 1.249188
vt 0.634359 0.701799
vt 0.699088 0.618141
vt 0.699088 0.699888
vt 0.634359 0.620051
vt 0.699088 0.522106
vt 0.746102 0.783868
vt 0.703709 0.875414
vt 0.703709 0.795083
vt 0.623352 0.768605
vt 0.617374 0.701779
vt 0.623352 0.701779
vt 0.699088 0.874591
vt 0.699088 0.794259
vt 0.869319 0.603625
vt 0.882424 0.522470
vt 0.875099 0.603990
vt 0.703709 0.700711
vt 0.876644 0.707579
vt 0.116028 0.999687
vt 0.096480 0.233217
vt 0.116028 0.232903
vt 0.096480 1.000000
vt 0.076719 0.233128
vt 0.076719 0.999910
vt 0.057507 0.232639
vt 0.057507 0.999422
vt 0.039580 0.231771
vt 0.039580 0.998554
vt 0.023627 0.230556
vt 0.023627 0.997338
vt 0.010263 0.229040
vt 0.010263 0.995823
vt 0.000000 0.227283
vt 0.333077 0.981516
vt 0.322088 0.232513
vt 0.333077 0.228944
vt 0.322088 0.985085
vt 0.308103 0.235550
vt 0.308103 0.988122
vt 0.291657 0.237935
vt 0.291657 0.990507
vt 0.273384 0.239578
vt 0.273384 0.992150
vt 0.253985 0.240417
vt 0.253985 0.992989
vt 0.234206 0.240417
vt 0.234206 0.992989
vt 0.214807 0.239578
vt 0.214807 0.992150
vt 0.196533 0.237935
vt 0.196533 0.990507
vt 0.180088 0.235550
vt 0.180088 0.988122
vt 0.166102 0.232513
vt 0.458510 0.986768
vt 0.428184 0.237014
vt 0.444583 0.234324
vt 0.442112 0.989457
vt 0.409945 0.238996
vt 0.423872 0.991439
vt 0.390565 0.240191
vt 0.404492 0.992635
vt 0.370789 0.240558
vt 0.384716 0.993001
vt 0.351378 0.240079
vt 0.365305 0.992522
vt 0.333077 0.238774
vt 0.569499 0.998776
vt 0.550914 0.233714
vt 0.569499 0.232935
vt 0.550914 0.999555
vt 0.531366 0.234060
vt 0.511606 0.999804
vt 0.511606 0.233962
vt 0.492393 0.233422
vt 0.492392 0.999263
vt 0.474464 0.232461
vt 0.474464 0.998302
vt 0.458511 0.231116
vt 0.166102 0.996528
vt 0.151521 0.231133
vt 0.166102 0.229745
vt 0.605901 0.178403
vt 0.591915 0.036402
vt 0.733916 0.022416
vt 0.151521 0.997917
vt 0.134613 0.232201
vt 0.134613 0.998983
vt 0.090966 0.000000
vt 0.244095 0.000000
vt 0.458510 0.231030
vt 0.376228 0.000000
vt 0.525838 0.000000
vt 0.630879 0.522106
vt 0.569499 0.214625
vt 0.630879 0.200819
vt 0.569499 0.701779
vt 0.590448 0.766702
vt 0.569499 0.766702
vt 0.765928 0.211859
vt 0.807076 0.200819
vt 0.807076 0.509267
vt 0.790872 0.506439
vt 0.749724 0.209031
vt 0.828788 0.836479
vt 0.849080 0.522105
vt 0.849080 0.835910
vt 0.749724 0.522097
vt 0.710219 0.216770
vt 0.749724 0.200819
vt 0.611397 0.766702
vt 0.590448 0.701779
vt 0.611397 0.701779
vt 0.693792 0.514275
vt 0.630878 0.514275
vt 0.641790 0.200819
vt 0.869319 0.522106
vt 0.849080 0.831695
vt 0.849080 0.523680
vt 0.693792 0.215928
vt 0.733297 0.521256
vt 0.807076 0.367414
vt 0.859055 0.296200
vt 0.859055 0.376531
vt 0.807076 0.287082
vt 0.859055 0.201829
vt 0.828788 0.616482
vt 0.764186 0.700107
vt 0.764186 0.618259
vt 0.629329 0.768605
vt 0.623352 0.701779
vt 0.629329 0.701779
vt 0.862812 0.295190
vt 0.862812 0.282221
vt 0.876098 0.201175
vt 0.868582 0.282577
vt 0.764186 0.522106
vt 0.862812 0.200819
vt 0.870328 0.386820
vt 0.829998 0.186546
vt 0.873581 0.095217
vt 0.873581 0.175549
vt 0.829998 0.106215
vt 0.873581 0.000846
vt 0.699088 0.605590
vt 0.764185 0.522106
vt 0.764185 0.603853
vt 0.617374 0.768605
vt 0.611397 0.701779
vt 0.617374 0.701779
vt 0.751926 0.796041
vt 0.746103 0.878030
vt 0.746103 0.796182
vt 0.825467 0.185700
vt 0.825467 0.105368
vt 0.764185 0.699888
vt 0.751926 0.699888
vt 0.634359 0.522106
vt 0.569499 0.605626
vt 0.569499 0.523778
vt 0.634359 0.603954
vt 0.569499 0.701779
vt 0.774146 0.080331
vt 0.825467 0.009292
vt 0.825467 0.089623
vt 0.757727 0.699888
vt 0.763705 0.766714
vt 0.757727 0.766714
vt 0.751926 0.781801
vt 0.757727 0.699888
vt 0.757727 0.781636
vt 0.770318 0.081328
vt 0.774146 0.000000
vt 0.825467 0.183994
vt 0.751926 0.877837
vt 0.821638 0.184991
vt 0.746102 0.864200
vt 0.617374 0.768605
vt 0.876644 0.522106
vt 0.699088 0.699888
vt 0.882424 0.707943
vt 0.000000 0.994066
vt 0.166102 0.985085
vt 0.347004 0.991218
vt 0.531366 0.999902
vt 0.458510 0.996958
vt 0.747901 0.164417
vt 0.733916 0.178403
vt 0.679798 0.200819
vt 0.717470 0.189392
vt 0.699197 0.196961
vt 0.660019 0.200819
vt 0.640620 0.196961
vt 0.622346 0.189391
vt 0.591915 0.164417
vt 0.580926 0.147971
vt 0.573357 0.129698
vt 0.569499 0.110299
vt 0.569499 0.090520
vt 0.573357 0.071121
vt 0.580926 0.052848
vt 0.605901 0.022416
vt 0.622346 0.011428
vt 0.640620 0.003859
vt 0.660019 0.000000
vt 0.679798 0.000000
vt 0.699197 0.003859
vt 0.717470 0.011428
vt 0.747901 0.036402
vt 0.770318 0.090520
vt 0.758890 0.052848
vt 0.766459 0.071121
vt 0.770318 0.110299
vt 0.766459 0.129698
vt 0.758890 0.147971
vt 0.590448 0.701779
vt 0.828788 0.522674
vt 0.590448 0.766702
vt 0.869319 0.830120
vt 0.828788 0.698331
vt 0.623352 0.768605
vt 0.862812 0.375522
vt 0.870328 0.200819
vt 0.876098 0.387176
vt 0.699088 0.523842
vt 0.611397 0.768605
vt 0.751926 0.877890
vt 0.746103 0.700028
vt 0.869050 0.000000
vt 0.763705 0.699888
vt 0.751926 0.700054
vt 0.770318 0.000997
vt 0.757727 0.877671
vn -1.0000 0.0000 0.0000
vn 1.0000 0.0000 0.0000
vn 0.0000 0.0000 1.0000
vn 0.0000 -1.0000 0.0000
vn 0.0000 1.0000 0.0000
vn 0.0000 0.8226 -0.5686
vn 0.0980 0.9952 0.0000
vn 0.2903 0.9569 0.0000
vn 0.4714 0.8819 0.0000
vn 0.6344 0.7730 0.0000
vn 0.7730 0.6344 0.0000
vn 0.8819 0.4714 0.0000
vn 0.9569 0.2903 0.0000
vn 0.9952 0.0980 0.0000
vn 0.9952 -0.0980 0.0000
vn 0.9569 -0.2903 0.0000
vn 0.8819 -0.4714 0.0000
vn 0.7730 -0.6344 -0.0000
vn 0.6344 -0.7730 -0.0000
vn 0.4714 -0.8819 0.0000
vn 0.2903 -0.9569 0.0000
vn 0.0980 -0.9952 -0.0000
vn -0.0980 -0.9952 0.0000
vn -0.2903 -0.9569 -0.0000
vn -0.4714 -0.8819 0.0000
vn -0.6344 -0.7730 -0.0000
vn -0.7730 -0.6344 -0.0000
vn -0.8819 -0.4714 0.0000
vn -0.9569 -0.2903 -0.0000
vn -0.9952 -0.0980 -0.0000
vn -0.9952 0.0980 0.0000
vn -0.9569 0.2903 0.0000
vn -0.8819 0.4714 0.0000
vn -0.7730 0.6344 0.0000
vn -0.6344 0.7730 0.0000
vn -0.4714 0.8819 0.0000
vn -0.2903 0.9569 0.0000
vn -0.0980 0.9952 0.0000
vn -0.4301 0.8047 -0.4091
vn 0.9081 0.0894 -0.4091
vn -0.0894 -0.9081 -0.4091
vn -0.8732 0.2649 -0.4091
vn 0.5789 0.7054 -0.4091
vn 0.5789 -0.7054 -0.4091
vn -0.8047 -0.4301 -0.4091
vn -0.2649 0.8732 -0.4091
vn 0.9081 -0.0894 -0.4091
vn -0.2649 -0.8732 -0.4091
vn -0.8047 0.4301 -0.4091
vn 0.7054 0.5789 -0.4091
vn 0.4301 -0.8047 -0.4091
vn -0.8732 -0.2649 -0.4091
vn 0.0894 0.9081 -0.4091
vn -0.0894 0.9081 -0.4091
vn 0.8732 -0.2649 -0.4091
vn -0.4301 -0.8047 -0.4091
vn -0.7054 0.5789 -0.4091
vn 0.8047 0.4301 -0.4091
vn 0.2649 -0.8732 -0.4091
vn -0.9081 -0.0894 -0.4091
vn 0.2649 0.8732 -0.4091
vn 0.8047 -0.4301 -0.4091
vn -0.5789 -0.7054 -0.4091
vn -0.5789 0.7054 -0.4091
vn 0.8732 0.2649 -0.4091
vn 0.0894 -0.9081 -0.4091
vn -0.9081 0.0894 -0.4091
vn 0.4301 0.8047 -0.4091
vn 0.7054 -0.5789 -0.4091
vn -0.7054 -0.5789 -0.4091
vn 0.0000 0.0000 -1.0000
vn 0.0000 -0.9805 0.1963
vn 0.0000 1.0000 0.0054
vn 0.0000 0.9805 0.1963
vn 0.0000 -1.0000 0.0054
vn 0.0076 -1.0000 0.0000
vn -0.0076 1.0000 0.0000
vn 1.0000 0.0076 0.0000
vn -1.0000 -0.0076 0.0000
vn -0.8226 -0.0063 -0.5686
vn 0.9997 -0.0232 0.0000
vn -0.9997 0.0232 0.0000
vn 0.0232 0.9997 0.0000
vn -0.0232 -0.9997 0.0000
vn -0.0191 -0.8224 -0.5686
vn 0.0079 1.0000 0.0000
vn -0.0079 -1.0000 0.0000
vn -1.0000 0.0079 0.0000
vn 1.0000 -0.0079 0.0000
vn 0.8226 -0.0065 -0.5686
usemtl マテリアル
s off
f 2/1/1 3/2/1 1/3/1
f 3/2/1 4/4/1 9/5/1
f 8/6/2 5/7/2 7/8/2
f 6/9/3 1/10/3 5/11/3
f 7/8/4 1/12/4 3/13/4
f 4/14/5 6/15/5 8/16/5
f 8/6/2 7/8/2 10/17/2
f 3/13/4 10/17/4 7/8/4
f 8/16/6 9/18/6 4/14/6
f 12/19/7 13/20/7 11/21/7
f 14/22/8 15/23/8 13/20/8
f 16/24/9 17/25/9 15/23/9
f 18/26/10 19/27/10 17/25/10
f 20/28/11 21/29/11 19/27/11
f 22/30/12 23/31/12 21/29/12
f 24/32/13 25/33/13 23/31/13
f 26/34/14 27/35/14 25/36/14
f 28/37/15 29/38/15 27/35/15
f 30/39/16 31/40/16 29/38/16
f 32/41/17 33/42/17 31/40/17
f 34/43/18 35/44/18 33/42/18
f 36/45/19 37/46/19 35/44/19
f 38/47/20 39/48/20 37/46/20
f 40/49/21 41/50/21 39/48/21
f 42/51/22 43/52/22 41/50/22
f 44/53/23 45/54/23 43/52/23
f 46/55/24 47/56/24 45/57/24
f 48/58/25 49/59/25 47/56/25
f 50/60/26 51/61/26 49/59/26
f 52/62/27 53/63/27 51/61/27
f 54/64/28 55/65/28 53/63/28
f 56/66/29 57/67/29 55/65/29
f 58/68/30 59/69/30 57/70/30
f 60/71/31 61/72/31 59/69/31
f 61/72/32 64/73/32 63/74/32
f 64/73/33 65/75/33 63/74/33
f 66/76/34 67/77/34 65/75/34
f 68/78/35 69/79/35 67/77/35
f 70/80/36 71/81/36 69/82/36
f 64/83/3 48/84/3 32/85/3
f 72/86/37 73/87/37 71/81/37
f 74/88/38 11/21/38 73/87/38
f 69/82/39 71/81/39 75/89/39
f 25/36/40 27/35/40 75/90/40
f 43/91/41 45/57/41 75/92/41
f 61/72/42 63/74/42 75/93/42
f 17/25/43 19/27/43 75/89/43
f 35/44/44 37/46/44 75/90/44
f 53/63/45 55/65/45 75/92/45
f 71/81/46 73/87/46 75/89/46
f 27/35/47 29/38/47 75/90/47
f 45/57/48 47/56/48 75/92/48
f 63/74/49 65/75/49 75/93/49
f 19/27/50 21/29/50 75/89/50
f 37/46/51 39/48/51 75/90/51
f 55/65/52 57/67/52 75/92/52
f 11/21/53 13/20/53 75/89/53
f 73/87/54 11/21/54 75/89/54
f 29/38/55 31/40/55 75/90/55
f 47/56/56 49/59/56 75/92/56
f 65/75/57 67/77/57 75/93/57
f 21/29/58 23/31/58 75/89/58
f 39/48/59 41/50/59 75/90/59
f 57/70/60 59/69/60 75/93/60
f 13/20/61 15/23/61 75/89/61
f 31/40/62 33/42/62 75/90/62
f 49/59/63 51/61/63 75/92/63
f 67/77/64 69/79/64 75/93/64
f 23/31/65 25/33/65 75/89/65
f 41/50/66 43/52/66 75/90/66
f 59/69/67 61/72/67 75/93/67
f 15/23/68 17/25/68 75/89/68
f 33/42/69 35/44/69 75/90/69
f 51/61/70 53/63/70 75/92/70
f 76/94/1 78/95/1 77/96/1
f 78/97/71 80/98/71 77/99/71
f 80/100/2 81/101/2 79/102/2
f 80/100/72 76/103/72 77/104/72
f 78/105/73 79/106/73 81/107/73
f 82/108/2 84/109/2 83/110/2
f 84/111/71 86/112/71 83/113/71
f 86/114/1 87/115/1 85/116/1
f 86/117/74 82/118/74 83/119/74
f 87/120/75 82/108/75 85/121/75
f 89/122/76 90/123/76 88/124/76
f 90/123/76 91/125/76 96/126/76
f 95/127/77 92/128/77 94/129/77
f 93/130/3 88/131/3 92/132/3
f 94/133/78 88/124/78 90/123/78
f 91/134/79 93/135/79 95/136/79
f 95/127/77 94/129/77 97/137/77
f 90/123/78 97/138/78 94/133/78
f 95/136/80 96/139/80 91/134/80
f 99/140/81 100/141/81 98/142/81
f 100/141/81 101/143/81 106/144/81
f 105/145/82 102/146/82 104/147/82
f 103/148/3 98/149/3 102/150/3
f 104/151/83 98/152/83 100/153/83
f 101/143/84 103/154/84 105/155/84
f 105/145/82 104/147/82 107/156/82
f 100/153/83 107/157/83 104/151/83
f 105/155/85 106/144/85 101/143/85
f 109/158/86 110/159/86 108/160/86
f 110/159/86 111/161/86 116/162/86
f 115/163/87 112/164/87 114/165/87
f 113/166/3 108/167/3 112/168/3
f 114/169/88 108/170/88 110/171/88
f 111/172/89 113/173/89 115/163/89
f 115/163/87 114/165/87 117/174/87
f 110/171/88 117/175/88 114/169/88
f 115/163/90 116/176/90 111/172/90
f 2/1/1 4/4/1 3/2/1
f 8/6/2 6/177/2 5/7/2
f 6/9/3 2/178/3 1/10/3
f 7/8/4 5/7/4 1/12/4
f 4/14/5 2/179/5 6/15/5
f 3/13/4 9/180/4 10/17/4
f 8/16/6 10/181/6 9/18/6
f 12/19/7 14/22/7 13/20/7
f 14/22/8 16/24/8 15/23/8
f 16/24/9 18/26/9 17/25/9
f 18/26/10 20/28/10 19/27/10
f 20/28/11 22/30/11 21/29/11
f 22/30/12 24/32/12 23/31/12
f 24/32/13 26/182/13 25/33/13
f 26/34/14 28/37/14 27/35/14
f 28/37/15 30/39/15 29/38/15
f 30/39/16 32/41/16 31/40/16
f 32/41/17 34/43/17 33/42/17
f 34/43/18 36/45/18 35/44/18
f 36/45/19 38/47/19 37/46/19
f 38/47/20 40/49/20 39/48/20
f 40/49/21 42/51/21 41/50/21
f 42/51/22 44/53/22 43/52/22
f 44/53/23 46/183/23 45/54/23
f 46/55/24 48/58/24 47/56/24
f 48/58/25 50/60/25 49/59/25
f 50/60/26 52/62/26 51/61/26
f 52/62/27 54/64/27 53/63/27
f 54/64/28 56/66/28 55/65/28
f 56/66/29 58/184/29 57/67/29
f 58/68/30 60/71/30 59/69/30
f 60/71/31 62/185/31 61/72/31
f 61/72/32 62/185/32 64/73/32
f 64/73/33 66/76/33 65/75/33
f 66/76/34 68/78/34 67/77/34
f 68/78/35 70/186/35 69/79/35
f 70/80/36 72/86/36 71/81/36
f 16/187/3 14/188/3 72/189/3
f 14/188/3 12/190/3 72/189/3
f 12/190/3 74/191/3 72/189/3
f 72/189/3 70/192/3 68/193/3
f 68/193/3 66/194/3 72/189/3
f 66/194/3 64/83/3 72/189/3
f 64/83/3 62/195/3 60/196/3
f 60/196/3 58/197/3 56/198/3
f 56/198/3 54/199/3 48/84/3
f 54/199/3 52/200/3 48/84/3
f 52/200/3 50/201/3 48/84/3
f 48/84/3 46/202/3 44/203/3
f 44/203/3 42/204/3 40/205/3
f 40/205/3 38/206/3 36/207/3
f 36/207/3 34/208/3 32/85/3
f 32/85/3 30/209/3 24/210/3
f 30/209/3 28/211/3 24/210/3
f 28/211/3 26/212/3 24/210/3
f 24/210/3 22/213/3 20/214/3
f 20/214/3 18/215/3 24/210/3
f 18/215/3 16/187/3 24/210/3
f 64/83/3 60/196/3 48/84/3
f 60/196/3 56/198/3 48/84/3
f 48/84/3 44/203/3 40/205/3
f 40/205/3 36/207/3 32/85/3
f 16/187/3 72/189/3 64/83/3
f 48/84/3 40/205/3 32/85/3
f 32/85/3 24/210/3 16/187/3
f 16/187/3 64/83/3 32/85/3
f 72/86/37 74/88/37 73/87/37
f 74/88/38 12/19/38 11/21/38
f 78/97/71 81/216/71 80/98/71
f 80/100/72 79/102/72 76/103/72
f 78/105/73 76/217/73 79/106/73
f 84/111/71 87/218/71 86/112/71
f 86/117/74 85/219/74 82/118/74
f 87/120/75 84/109/75 82/108/75
f 89/122/76 91/125/76 90/123/76
f 95/127/77 93/220/77 92/128/77
f 93/130/3 89/221/3 88/131/3
f 94/133/78 92/222/78 88/124/78
f 91/134/79 89/223/79 93/135/79
f 90/123/78 96/126/78 97/138/78
f 95/136/80 97/224/80 96/139/80
f 99/140/81 101/143/81 100/141/81
f 105/145/82 103/225/82 102/146/82
f 103/148/3 99/226/3 98/149/3
f 104/151/83 102/227/83 98/152/83
f 101/143/84 99/140/84 103/154/84
f 100/153/83 106/228/83 107/157/83
f 105/155/85 107/229/85 106/144/85
f 109/158/86 111/161/86 110/159/86
f 115/163/87 113/173/87 112/164/87
f 113/166/3 109/230/3 108/167/3
f 114/169/88 112/231/88 108/170/88
f 111/172/89 109/232/89 113/173/89
f 110/171/88 116/233/88 117/175/88
f 115/163/90 117/174/90 116/176/90
